<svg xmlns="http://www.w3.org/2000/svg" width="18" height="18" viewBox="0 0 18 18">
  <path d="M0,9a9,9,0,1,1,9,9A9.01,9.01,0,0,1,0,9ZM.915,9A8.085,8.085,0,1,0,9,.915,8.094,8.094,0,0,0,.915,9Zm7.471,4.5a.122.122,0,0,1-.13-.13V11.885a.122.122,0,0,1,.13-.13H9.95a.123.123,0,0,1,.13.13v1.486a.123.123,0,0,1-.13.13Zm.026-2.592a.122.122,0,0,1-.13-.13v-.547A1.537,1.537,0,0,1,8.66,9.138l.912-1.185a1.573,1.573,0,0,0,.5-1.042.813.813,0,0,0-.86-.859.976.976,0,0,0-.976.912.131.131,0,0,1-.17.117L6.654,6.872a.119.119,0,0,1-.1-.157A2.521,2.521,0,0,1,9.259,4.5a2.409,2.409,0,0,1,2.618,2.345,2.453,2.453,0,0,1-.69,1.693l-.873,1.147a1.007,1.007,0,0,0-.26.781v.313a.123.123,0,0,1-.131.13Z" fill="#00bb4b"/>
</svg>
