<svg xmlns="http://www.w3.org/2000/svg" xmlns:xlink="http://www.w3.org/1999/xlink" width="158.198" height="26" viewBox="0 0 158.198 26">
  <path d="M93.664,22.716,85.456,14.56H83.237V33.486H87.17V21.741l6.493,6.468,6.52-6.468V33.486h3.907V14.56H101.9Z" transform="translate(-52.234 -9.137)" fill="#282828"/>
  <rect width="9.914" height="3.96" transform="translate(67.16 12.998)" fill="#282828"/>
  <g clip-path="url(#clip-path)">
    <path d="M225.706,20.149a5.567,5.567,0,0,1,1.779-1.212,5.356,5.356,0,0,1,4.38.065,7.674,7.674,0,0,1,2.063,1.415l.1.09,2.687-2.829-.091-.091a10.551,10.551,0,0,0-3.261-2.245,9.369,9.369,0,0,0-7.228-.094,9.438,9.438,0,0,0-5.178,4.951,9.4,9.4,0,0,0-.817,3.948,9.659,9.659,0,0,0,.669,3.533,9.4,9.4,0,0,0,1.914,3.038,9.649,9.649,0,0,0,3.011,2.141,9.306,9.306,0,0,0,3.935.817,8.975,8.975,0,0,0,3.63-.724,12.027,12.027,0,0,0,3.163-2.081l.044-.039V22.776H229v3.933h3.589v2.246a6.386,6.386,0,0,1-1.382.57,5.585,5.585,0,0,1-3.726-.219,5.617,5.617,0,0,1-2.98-2.98,5.471,5.471,0,0,1-.438-2.178,5.573,5.573,0,0,1,.438-2.192,5.793,5.793,0,0,1,1.2-1.807" transform="translate(-138.141 -9.143)" fill="#282828"/>
    <path d="M277.749,33.8h12.142V29.864h-8.209V26.407h5.992v-3.96h-5.992V18.989h8.209V15.057H277.749Z" transform="translate(-174.295 -9.448)" fill="#282828"/>
    <path d="M334.266,25.435,324.518,14.6l-.039-.044h-1.8V33.486h3.906V22.823l9.76,10.847h1.827V14.745h-3.906Z" transform="translate(-202.49 -9.137)" fill="#282828"/>
    <path d="M392.316,21.045a9.811,9.811,0,0,0-2.087-2.983,9.43,9.43,0,0,0-3-1.954,9.194,9.194,0,0,0-3.495-.7,9.02,9.02,0,0,0-3.75.778,9.671,9.671,0,0,0-2.97,2.074,9.545,9.545,0,0,0-1.967,3.01,9.255,9.255,0,0,0-.71,3.562,9.1,9.1,0,0,0,.8,3.87,9.28,9.28,0,0,0,2.129,2.945,9.718,9.718,0,0,0,3.01,1.886,9.32,9.32,0,0,0,3.454.669,9.112,9.112,0,0,0,3.763-.777,9.36,9.36,0,0,0,2.971-2.088,9.713,9.713,0,0,0,1.94-3,9.145,9.145,0,0,0,.7-3.508,9.048,9.048,0,0,0-.791-3.79m-8.579,9.28a5.551,5.551,0,0,1-2.153-.426,5.434,5.434,0,0,1-1.766-1.173,5.66,5.66,0,0,1-1.186-1.754,5.441,5.441,0,0,1,0-4.276,5.833,5.833,0,0,1,1.187-1.769,5.568,5.568,0,0,1,1.754-1.2,5.376,5.376,0,0,1,2.165-.438,5.154,5.154,0,0,1,2.1.438,5.719,5.719,0,0,1,2.955,2.967,5.313,5.313,0,0,1,.438,2.138,5.217,5.217,0,0,1-.437,2.124,5.658,5.658,0,0,1-2.929,2.928,5.221,5.221,0,0,1-2.124.438" transform="translate(-234.908 -9.671)" fill="#282828"/>
    <rect width="3.914" height="3.914" transform="translate(57.33 5.584)" fill="#282828"/>
    <rect width="3.914" height="13.625" transform="translate(57.33 10.725)" fill="#282828"/>
    <path d="M46.827,54.624a2.827,2.827,0,1,0,2.827,2.827,2.827,2.827,0,0,0-2.827-2.827" transform="translate(-27.611 -34.278)" fill="#282828"/>
    <path d="M24.827,10.624a2.827,2.827,0,1,0,2.827,2.827,2.827,2.827,0,0,0-2.827-2.827" transform="translate(-13.806 -6.667)" fill="#282828"/>
    <path d="M2.827,10.624a2.827,2.827,0,1,0,2.827,2.827,2.827,2.827,0,0,0-2.827-2.827" transform="translate(0 -6.667)" fill="#282828"/>
    <path d="M2.827,32.624a2.827,2.827,0,1,0,2.827,2.827,2.827,2.827,0,0,0-2.827-2.827" transform="translate(0 -20.473)" fill="#282828"/>
    <path d="M20.668,23.02V16.675l-.158.032a6.506,6.506,0,0,1-1.2.13l0,.132-.022-.132h-.173a6.506,6.506,0,0,1-1.2-.13l-.158-.032V23.02a2.839,2.839,0,0,0-.971.971H13.444A2.825,2.825,0,1,0,9.57,27.866v3.349a2.835,2.835,0,0,0-.971.971H5.25a2.828,2.828,0,1,0,0,2.9H8.6a2.825,2.825,0,1,0,3.874-3.874v-3.35a2.832,2.832,0,0,0,.971-.971h3.349a2.825,2.825,0,1,0,3.874-3.874" transform="translate(0 -10.464)" fill="#00bb4b"/>
    <path d="M47.347,0h0A4.016,4.016,0,0,0,43.32,4.006,4.016,4.016,0,0,0,39.294,0h0a3.3,3.3,0,0,0-.882.114,4.9,4.9,0,0,0,4.832,4.807H43.4A4.9,4.9,0,0,0,48.229.114,3.3,3.3,0,0,0,47.347,0" transform="translate(-24.104 0)" fill="#00bb4b"/>
  </g>
</svg>
