<svg xmlns="http://www.w3.org/2000/svg" xmlns:xlink="http://www.w3.org/1999/xlink" width="259.574" height="238" viewBox="0 0 259.574 238">
  <defs>
    <clipPath id="clip-path">
      <rect width="159.594" height="172" fill="none"/>
    </clipPath>
    <clipPath id="clip-path-2">
      <rect width="259.574" height="39" fill="none"/>
    </clipPath>
  </defs>
  <g transform="translate(55 0)">
    <g transform="translate(0 0)" clip-path="url(#clip-path)">
      <path d="M62.7,54.624a18.7,18.7,0,1,0,18.7,18.7,18.7,18.7,0,0,0-18.7-18.7" transform="translate(64.418 79.971)" fill="#282828"/>
      <path d="M40.7,10.624a18.7,18.7,0,1,0,18.7,18.7,18.7,18.7,0,0,0-18.7-18.7" transform="translate(32.209 15.553)" fill="#282828"/>
      <path d="M18.7,10.624a18.7,18.7,0,1,0,18.7,18.7,18.7,18.7,0,0,0-18.7-18.7" transform="translate(0 15.553)" fill="#282828"/>
      <path d="M18.7,32.624a18.7,18.7,0,1,0,18.7,18.7,18.7,18.7,0,0,0-18.7-18.7" transform="translate(0 47.762)" fill="#282828"/>
      <path d="M136.725,58.65V16.675l-1.047.214a43.04,43.04,0,0,1-7.919.86l.012.872-.143-.872h-1.146a43.04,43.04,0,0,1-7.919-.86l-1.047-.214V58.65a18.782,18.782,0,0,0-6.421,6.424H88.937A18.689,18.689,0,1,0,63.306,90.7v22.154a18.753,18.753,0,0,0-6.421,6.421H34.728a18.706,18.706,0,1,0,0,19.207H56.885a18.688,18.688,0,1,0,25.631-25.629V90.7a18.732,18.732,0,0,0,6.421-6.421h22.157A18.688,18.688,0,1,0,136.725,58.65" transform="translate(0 24.412)" fill="#00bb4b"/>
      <path d="M97.523,0h0A26.567,26.567,0,0,0,70.885,26.5,26.567,26.567,0,0,0,44.251,0h0a21.8,21.8,0,0,0-5.835.756,32.414,32.414,0,0,0,31.966,31.8h1.015A32.414,32.414,0,0,0,103.358.757,21.8,21.8,0,0,0,97.523,0" transform="translate(56.235 -0.001)" fill="#00bb4b"/>
    </g>
  </g>
  <g transform="translate(0 199)">
    <path d="M38.081,0l-16.8,16.643L4.529,0H0V38.623H8.026V14.654l13.251,13.2,13.305-13.2V38.623h7.973V0Z" transform="translate(0 0)" fill="#282828"/>
      <rect width="20.232" height="8.081" transform="translate(73.787 15.46)" fill="#282828"/>
    <g transform="translate(0 0)">
      <g clip-path="url(#clip-path-2)">
        <path d="M148.267,11.4A11.361,11.361,0,0,1,151.9,8.923a10.93,10.93,0,0,1,8.939.132,15.662,15.662,0,0,1,4.21,2.887l.2.184,5.483-5.772-.185-.185a21.531,21.531,0,0,0-6.656-4.581A19.12,19.12,0,0,0,149.133,1.4a19.26,19.26,0,0,0-10.568,10.1,19.173,19.173,0,0,0-1.668,8.057,19.712,19.712,0,0,0,1.366,7.209,19.2,19.2,0,0,0,3.906,6.2,19.691,19.691,0,0,0,6.144,4.369A18.991,18.991,0,0,0,156.343,39a18.317,18.317,0,0,0,7.407-1.477,24.546,24.546,0,0,0,6.454-4.248l.09-.08V16.756H155v8.026h7.325v4.584a13.035,13.035,0,0,1-2.821,1.164,11.4,11.4,0,0,1-7.6-.446A11.463,11.463,0,0,1,145.817,24a11.166,11.166,0,0,1-.893-4.445,11.372,11.372,0,0,1,.894-4.473,11.823,11.823,0,0,1,2.449-3.687" transform="translate(-32.838 -0.003)" fill="#282828"/>
        <path d="M194.511,38.742h24.779V30.715H202.538V23.659h12.227V15.578H202.538V8.522h16.752V.5H194.511Z" transform="translate(-46.658 -0.119)" fill="#282828"/>
        <path d="M263.088,22.192,243.2.089l-.08-.09H239.44V38.623h7.972V16.862L267.331,39h3.729V.377h-7.972Z" transform="translate(-57.435 0)" fill="#282828"/>
        <path d="M327.788,12.347a20.022,20.022,0,0,0-4.259-6.089,19.243,19.243,0,0,0-6.118-3.988A18.764,18.764,0,0,0,310.279.85a18.407,18.407,0,0,0-7.653,1.587,19.734,19.734,0,0,0-6.062,4.232,19.48,19.48,0,0,0-4.013,6.143,18.889,18.889,0,0,0-1.449,7.268,18.579,18.579,0,0,0,1.642,7.9,18.941,18.941,0,0,0,4.344,6.01,19.833,19.833,0,0,0,6.143,3.849,19.018,19.018,0,0,0,7.049,1.366,18.6,18.6,0,0,0,7.679-1.586,19.1,19.1,0,0,0,6.063-4.261,19.821,19.821,0,0,0,3.959-6.117,18.663,18.663,0,0,0,1.422-7.159,18.464,18.464,0,0,0-1.614-7.734M310.279,31.285a11.327,11.327,0,0,1-4.394-.869,11.09,11.09,0,0,1-3.6-2.393,11.549,11.549,0,0,1-2.421-3.579,11.1,11.1,0,0,1,0-8.726,11.9,11.9,0,0,1,2.423-3.61,11.361,11.361,0,0,1,3.579-2.445,10.971,10.971,0,0,1,4.418-.894,10.519,10.519,0,0,1,4.281.893,11.671,11.671,0,0,1,6.029,6.056,10.841,10.841,0,0,1,.893,4.363,10.647,10.647,0,0,1-.892,4.335,11.546,11.546,0,0,1-5.977,5.976,10.656,10.656,0,0,1-4.334.893" transform="translate(-69.827 -0.204)" fill="#282828"/>
        <rect width="7.988" height="7.988" transform="translate(53.727 0.329)" fill="#282828"/>
        <rect width="7.988" height="27.805" transform="translate(53.727 10.819)" fill="#282828"/>
      </g>
    </g>
  </g>
</svg>