<svg xmlns="http://www.w3.org/2000/svg" width="124.363" height="17.887" viewBox="0 0 124.363 17.887">
  <path d="M66.245,39.264H64V27.92h4.573a3.352,3.352,0,0,1,1.344.274,3.61,3.61,0,0,1,1.109.755,3.714,3.714,0,0,1,.761,1.109,3.276,3.276,0,0,1,.284,1.372A3.5,3.5,0,0,1,71.8,32.8a3.43,3.43,0,0,1-.755,1.118,3.586,3.586,0,0,1-1.118.745,3.4,3.4,0,0,1-1.351.27H66.245Zm0-6.565h1.912a1.8,1.8,0,0,0,1.264-.38,1.194,1.194,0,0,0,.4-.9,1.143,1.143,0,0,0-.4-.885,1.853,1.853,0,0,0-1.264-.364H66.245Z" transform="translate(-49.366 -21.536)" fill="#282828"/>
  <path d="M262.11,32.49h4.441V37.32a7.276,7.276,0,0,1-1.921,1.264,5.422,5.422,0,0,1-2.2.437,5.615,5.615,0,0,1-2.383-.494,5.809,5.809,0,0,1-1.829-1.3,5.671,5.671,0,0,1-1.159-1.829,5.84,5.84,0,0,1-.4-2.14,5.672,5.672,0,0,1,.494-2.389,5.8,5.8,0,0,1,5.275-3.412,5.587,5.587,0,0,1,2.236.471,6.36,6.36,0,0,1,1.976,1.361L265.1,30.913a4.816,4.816,0,0,0-1.276-.894,3.3,3.3,0,0,0-1.386-.316,3.4,3.4,0,0,0-1.372.277,3.442,3.442,0,0,0-1.13.761,3.672,3.672,0,0,0-.755,1.143,3.5,3.5,0,0,0-.274,1.372,3.431,3.431,0,0,0,.274,1.372,3.54,3.54,0,0,0,1.882,1.873,3.429,3.429,0,0,0,1.372.274,3.562,3.562,0,0,0,.972-.137,3.948,3.948,0,0,0,.915-.382V34.743H262.11Z" transform="translate(-197.971 -21.181)" fill="#282828"/>
  <path d="M311.535,27.42l5.106,11.458H314.16l-.915-2.076H308.91q-.208.487-.457,1.047t-.444,1.029h-2.47l5.031-11.458Zm.7,7.13-1.166-2.625L309.9,34.55Z" transform="translate(-235.675 -21.15)" fill="#282828"/>
  <path d="M370.421,39.264h-2.744l-3.089-4.329h-1.361v4.329H361V27.92h4.573a3.344,3.344,0,0,1,1.345.274,3.636,3.636,0,0,1,1.87,1.864,3.276,3.276,0,0,1,.283,1.372,3.449,3.449,0,0,1-.551,1.918A3.32,3.32,0,0,1,367.08,34.6ZM365.162,32.7a1.8,1.8,0,0,0,1.264-.38,1.194,1.194,0,0,0,.4-.9,1.144,1.144,0,0,0-.4-.885,1.853,1.853,0,0,0-1.264-.364h-1.928v2.515Z" transform="translate(-278.454 -21.536)" fill="#282828"/>
  <path d="M410,39.261V27.917h3.938a5.97,5.97,0,0,1,2.287.414,4.856,4.856,0,0,1,1.724,1.166,5.241,5.241,0,0,1,1.1,1.8,6.555,6.555,0,0,1,.389,2.309,6.226,6.226,0,0,1-.389,2.229,5.342,5.342,0,0,1-1.1,1.79,5.089,5.089,0,0,1-1.724,1.2,5.681,5.681,0,0,1-2.287.439Zm2.236-2.255h1.7a3.152,3.152,0,0,0,1.287-.258,3.11,3.11,0,0,0,1.029-.72,3.3,3.3,0,0,0,.686-1.086,3.807,3.807,0,0,0,0-2.673,3.278,3.278,0,0,0-.686-1.086,3.2,3.2,0,0,0-1.029-.729,3.083,3.083,0,0,0-1.287-.268h-1.7Z" transform="translate(-316.25 -21.533)" fill="#282828"/>
  <path d="M463.425,30.172v2.287H467.1v2.268h-3.677v2.287h5.031v2.255H461.18V27.92h7.292v2.252Z" transform="translate(-355.727 -21.536)" fill="#282828"/>
  <path d="M503,27.42h.988l6.124,6.807V27.534h2.236V38.986h-1.006L505.234,32.2v6.677H503Z" transform="translate(-387.984 -21.15)" fill="#282828"/>
  <path d="M133.887,40.8v.6a3.371,3.371,0,0,0-2.184-.812,3.572,3.572,0,0,0-2.764,1.237,4.4,4.4,0,0,0-1.1,3.041,4.539,4.539,0,0,0,1.1,3.1,3.642,3.642,0,0,0,2.813,1.23,3.473,3.473,0,0,0,2.136-.764v.542h2.245V40.8Zm-1.868,6.338a1.715,1.715,0,0,1-1.372-.624,2.476,2.476,0,0,1-.537-1.655,2.323,2.323,0,0,1,.551-1.6,1.731,1.731,0,0,1,1.372-.62,1.786,1.786,0,0,1,1.411.611,2.7,2.7,0,0,1,0,3.274,1.816,1.816,0,0,1-1.427.615Z" transform="translate(-98.609 -31.307)" fill="#282828"/>
  <path d="M181.919,41.545a2.879,2.879,0,0,0-2.266-.915,3.023,3.023,0,0,0-1.877.652v-.448H175.53V49h2.245V45.059a3.833,3.833,0,0,1,.329-1.9,1.12,1.12,0,0,1,1.063-.478,1.083,1.083,0,0,1,.94.348,2.557,2.557,0,0,1,.272,1.441V49h2.245v-4.95A3.685,3.685,0,0,0,181.919,41.545Z" transform="translate(-135.393 -31.34)" fill="#282828"/>
  <path d="M220.005,31.385v-3h-2.3v3H216.47V33.5H217.7v6.114h2.3V33.5h1.235v-2.12Z" transform="translate(-166.972 -21.891)" fill="#282828"/>
  <rect width="2.248" height="11.239" transform="translate(24.83 6.489)" fill="#282828"/>
  <path d="M22.478,59.91c-.544.389-1.123.723-1.662,1.036l-.505.3c1.473.876,2.357,1.553,2.357,2.694h2.287A4.827,4.827,0,0,0,22.478,59.91Z" transform="translate(-15.666 -46.211)" fill="#00bb4b"/>
  <path d="M6.812,25.5c-.505.348-1.034.654-1.527.942-.229.13-.439.254-.64.377,1.393.837,2.216,1.507,2.216,2.614s-.83,1.779-2.223,2.616c-.2.121-.416.247-.64.377-.487.277-1.024.592-1.521.942A4.827,4.827,0,0,0,0,37.395H2.287c0-1.143.885-1.829,2.357-2.694l.505-.3c.54-.313,1.118-.647,1.662-1.036a4.733,4.733,0,0,0,2.335-3.935A4.735,4.735,0,0,0,6.812,25.5Z" transform="translate(0 -19.669)"/>
  <path d="M4.644,10.576C3.172,9.7,2.287,9.021,2.287,7.88H0a4.828,4.828,0,0,0,2.476,4.029c.544-.389,1.123-.725,1.662-1.036Z" transform="translate(0 -6.078)"/>
  <path d="M7.738,16.375A3.944,3.944,0,0,1,6.293,16.1a13.26,13.26,0,0,1-1.194.78l-.505.3c-.54.311-1.118.647-1.662,1.036A4.72,4.72,0,0,0,.59,22.144a4.739,4.739,0,0,0,2.341,3.935,17.582,17.582,0,0,1,1.527-.942c.229-.13.439-.256.64-.377a7.461,7.461,0,0,1-1.651-1.226H5.115a.194.194,0,0,0,.194-.194.2.2,0,0,0-.194-.2H3.156a1.852,1.852,0,0,1-.268-.787H5.831a.194.194,0,1,0,0-.389H2.886a1.848,1.848,0,0,1,.27-.823h1.96a.194.194,0,1,0,0-.389H3.448A7.461,7.461,0,0,1,5.1,19.53c.2-.123.416-.247.64-.377.494-.288,1.022-.595,1.527-.942A6.041,6.041,0,0,0,9.309,16.05a3.956,3.956,0,0,1-1.571.325Z" transform="translate(-0.455 -12.38)" fill="#00bb4b"/>
  <path d="M24.3,0a2.419,2.419,0,0,0-2.419,2.419A2.421,2.421,0,0,0,18.93.059a2.957,2.957,0,0,0,2.895,2.9h.121a2.957,2.957,0,0,0,2.895-2.9A2.449,2.449,0,0,0,24.3,0Z" transform="translate(-14.601 0)" fill="#00bb4b"/>
</svg>
